<svg width="55" height="41" viewBox="0 0 55 41" fill="none" xmlns="http://www.w3.org/2000/svg">
<path fill-rule="evenodd" clip-rule="evenodd" d="M4.67999 13.7834C4.6754 12.6641 4.73044 12.8356 5.5422 12.3866L16.7463 6.12482C17.3838 5.76152 17.5168 5.44335 18.2116 5.79537C20.6515 7.03418 21.3532 8.10828 22.5158 7.44487C23.5248 6.87172 26.1183 5.5652 26.515 5.05298C24.2356 3.93376 21.915 2.43996 19.6311 1.18083C17.5053 0.0119654 18.3102 -0.0873208 16.1868 1.07703L2.39147 8.86646C-0.456573 10.4302 0.0318589 9.92476 0.0318589 11.6758L0.034152 29.0982C0.034152 30.6575 -0.300642 30.1024 2.65976 31.7834L12.8228 37.5217C18.5716 40.8501 17.4113 40.5545 19.8168 39.2118L26.5196 35.4435C26.0816 34.8816 24.4489 34.146 23.6876 33.7218C22.3484 32.9794 22.2452 32.4085 20.7684 33.2637C20.4291 33.46 18.1038 34.7823 17.9089 34.8184C17.4251 34.9087 15.547 33.6992 15.0219 33.3946L6.54658 28.6605C4.3108 27.4149 4.67999 27.9609 4.67999 26.1467V13.7834Z" fill="#5AE8DF"/>
<path fill-rule="evenodd" clip-rule="evenodd" d="M28.5811 5.10685C28.9595 5.51753 30.5669 6.35243 31.2732 6.72701C33.165 7.72438 32.8394 8.04932 34.2107 7.28662C37.671 5.35732 36.6529 5.1249 39.9435 7.05195L49.8956 12.5781C50.6339 12.9775 50.384 13.2077 50.384 14.2028C50.3909 16.272 50.6294 26.4691 50.306 27.5861C50.1157 27.7688 50.2235 27.6808 49.9712 27.8456L39.494 33.7012C36.8547 35.1183 38.1273 35.459 34.0295 33.1009C33.3347 32.7015 33.2614 32.6339 32.5574 33.0536C31.7341 33.5432 28.9297 34.9648 28.6384 35.4206L35.2449 39.2138C37.5495 40.4955 36.8959 40.5632 38.6066 39.5681L48.5082 33.9923C49.7075 33.3356 54.3327 30.8535 55 30.2217L54.9679 10.2697C54.8464 9.97185 40.4434 1.9455 38.4323 0.812733C37.7857 0.449438 37.4646 0.0477813 36.795 0.395282L31.8167 3.24524C30.8651 3.771 29.3654 4.51564 28.5811 5.10685Z" fill="#FA7B32"/>
<path fill-rule="evenodd" clip-rule="evenodd" d="M27.7051 20.2189L27.7211 32.0926C28.4847 32.0046 32.1698 29.7074 33.1741 29.1681C34.7518 28.3242 37.1687 27.0854 38.4964 26.1286C38.6249 24.7996 38.6822 14.6747 38.3887 14.1918C36.6757 15.0876 34.8344 16.2497 33.0159 17.2065C32.1331 17.6713 31.1746 18.2219 30.2757 18.7296C29.4203 19.2102 28.3838 19.7292 27.7051 20.2189Z" fill="#FA7A32"/>
<path fill-rule="evenodd" clip-rule="evenodd" d="M27.7211 32.0926L27.705 20.2189C26.9758 19.5126 23.5935 17.8293 22.3965 17.1456C21.5274 16.6491 20.6239 16.1662 19.7479 15.6788C18.9408 15.2298 17.7438 14.4423 17.0742 14.167C16.8105 14.7853 16.7898 25.2532 17.026 26.2009C17.4755 26.6048 27.1409 31.9798 27.7211 32.0926Z" fill="#5AE8DF"/>
<path fill-rule="evenodd" clip-rule="evenodd" d="M17.0743 14.1671C17.7439 14.4424 18.9409 15.2299 19.748 15.6789C20.624 16.1663 21.5275 16.6492 22.3966 17.1456C23.5936 17.8294 26.9759 19.5127 27.7051 20.219C28.3839 19.7293 29.4204 19.2103 30.2757 18.7297C31.1746 18.222 32.1331 17.6714 33.016 17.2066C34.8344 16.2498 36.6758 15.0877 38.3887 14.1919C38.1044 13.8985 28.4343 8.41525 27.6753 8.13995L17.0743 14.1671Z" fill="#FEFFFF"/>
</svg>
